<svg xmlns="http://www.w3.org/2000/svg" width="35" height="35" fill="none" viewBox="0 0 35 35"><g clip-path="url(#clip0)"><path fill="#144175" d="M34.1004 11.3709L23.6293 0.899805C22.4298 -0.299678 20.478 -0.299541 19.2787 0.899805L6.1394 14.0392H3.0763C1.38003 14.0392 0 15.4192 0 17.1155V31.9239C0 33.6201 1.38003 35.0002 3.0763 35.0002H26.6353C28.3315 35.0002 29.7116 33.6201 29.7116 31.9239V20.1102L34.1004 15.7214C35.2998 14.522 35.2998 12.5704 34.1004 11.3709V11.3709ZM20.7289 2.34997C20.9289 2.15008 21.1915 2.05007 21.454 2.05007C21.7166 2.05007 21.9792 2.15008 22.1791 2.34997L27.5746 7.74546L21.2809 14.0392H9.03967L20.7289 2.34997ZM27.6607 31.9239C27.6607 32.4893 27.2007 32.9493 26.6353 32.9493H3.0763C2.51087 32.9493 2.05087 32.4893 2.05087 31.9239V17.1155C2.05087 16.55 2.51087 16.09 3.0763 16.09H26.6353C27.2007 16.09 27.6607 16.55 27.6607 17.1155V31.9239ZM27.0526 14.0682C26.916 14.0496 26.7769 14.0392 26.6353 14.0392H24.1812L29.0247 9.19556L30.475 10.6458L27.0526 14.0682ZM32.6502 14.2713L29.7116 17.2099V17.1155C29.7116 16.336 29.4196 15.6237 28.94 15.0811L31.9251 12.096L32.6502 12.821C33.05 13.2209 33.05 13.8715 32.6502 14.2713V14.2713Z"/><path fill="#144175" d="M4.10156 27.7943H7.91747V29.8452H4.10156V27.7943Z"/><path fill="#144175" d="M9.99902 27.7943H13.8149V29.8452H9.99902V27.7943Z"/><path fill="#144175" d="M15.8965 27.7943H19.7125V29.8452H15.8965V27.7943Z"/><path fill="#144175" d="M21.7939 27.7943H25.6099V29.8452H21.7939V27.7943Z"/><path fill="#144175" d="M11.0244 19.1938H4.10156V25.3464H11.0244V19.1938ZM8.97353 23.2956H6.15243V21.2447H8.97353V23.2956Z"/></g><defs><clipPath id="clip0"><rect width="35" height="35" fill="#fff"/></clipPath></defs></svg>