<svg width="35" height="35" viewBox="0 0 35 35" fill="none" xmlns="http://www.w3.org/2000/svg">
<g clip-path="url(#clip0)">
<path d="M8.75003 0C8.05964 0 7.5 0.559643 7.5 1.25002V3.75H9.99998V1.25002C9.99998 0.559643 9.44034 0 8.75003 0Z" fill="#144378"/>
<path d="M26.25 0C25.5596 0 25 0.559643 25 1.25002V3.75H27.5V1.25002C27.5 0.559643 26.9404 0 26.25 0Z" fill="#144378"/>
<path d="M31.25 3.75H27.5V8.75002C27.5 9.4404 26.9404 10 26.25 10C25.5596 10 25 9.4404 25 8.75002V3.75H9.99997V8.75002C9.99997 9.4404 9.44033 10 8.74995 10C8.05956 10 7.49992 9.4404 7.49992 8.75002V3.75H3.75C1.67893 3.75 0 5.42893 0 7.5V31.25C0 33.3211 1.67893 35 3.75 35H31.25C33.3211 35 35 33.3211 35 31.25V7.5C35 5.42893 33.3211 3.75 31.25 3.75ZM32.5 31.25C32.5 31.9404 31.9403 32.5 31.2499 32.5H3.75C3.05962 32.5 2.49997 31.9404 2.49997 31.25V15H32.5V31.25Z" fill="#144378"/>
<path d="M25.8837 17.8669C25.3956 17.3784 24.604 17.3782 24.1156 17.8662L14.9993 26.9825L10.883 22.8662C10.3946 22.3781 9.60298 22.3784 9.1149 22.8669C8.62681 23.3553 8.6271 24.1469 9.11556 24.635L14.1156 29.635C14.6037 30.123 15.395 30.123 15.8831 29.635L25.8831 19.635C26.3715 19.1469 26.3718 18.3553 25.8837 17.8669Z" fill="#144378"/>
</g>
<defs>
<clipPath id="clip0">
<rect width="35" height="35" fill="white"/>
</clipPath>
</defs>
</svg>
