<svg width="35" height="35" viewBox="0 0 35 35" fill="none" xmlns="http://www.w3.org/2000/svg">
<path d="M25.6882 16.2137H12.1768V18.916H25.6882V16.2137Z" fill="#144378"/>
<path d="M17.595 29.7251H4.07003C3.32555 29.7251 2.71889 29.1185 2.71889 28.374V5.40457H29.7417V16.8015C30.3011 16.5272 30.9132 16.3664 31.5563 16.3664C31.859 16.3664 32.1549 16.4042 32.444 16.4677V4.05343C32.444 1.81458 30.6281 0 28.3906 0H4.07003C1.83254 0 0.0166016 1.81458 0.0166016 4.05343V28.374C0.0166016 30.6115 1.83254 32.4274 4.07003 32.4274H16.8046L17.595 29.7251Z" fill="#144378"/>
<path d="M25.6882 10.8091H12.1768V13.5114H25.6882V10.8091Z" fill="#144378"/>
<path d="M12.1768 24.3206H21.7645L24.4803 21.6183H12.1768V24.3206Z" fill="#144378"/>
<path d="M9.47475 16.2137H6.77246V18.916H9.47475V16.2137Z" fill="#144378"/>
<path d="M9.47475 10.8091H6.77246V13.5114H9.47475V10.8091Z" fill="#144378"/>
<path d="M9.47475 21.6183H6.77246V24.3206H9.47475V21.6183Z" fill="#144378"/>
<path d="M34.5565 21.5291L32.5068 19.4753C31.9421 18.9065 31.0287 18.9025 30.4707 19.4632L28.8223 21.1224L32.9162 25.2339L34.566 23.5734C35.1267 23.0126 35.1226 22.0966 34.5565 21.5291Z" fill="#144378"/>
<path d="M20.7497 29.0523C20.6591 29.1266 20.5821 29.2185 20.547 29.3401L19.1188 34.2245C19.0553 34.4366 19.1148 34.6663 19.2702 34.823C19.3864 34.9379 19.5404 35 19.6985 35C19.7552 35 19.8133 34.9919 19.8687 34.9744L24.7355 33.5394C24.849 33.507 24.9369 33.4368 25.0112 33.353L31.6845 26.7121L27.4108 22.4222L20.7497 29.0523ZM21.3969 33.2625L20.8267 32.6882L21.636 29.9224L23.706 30.3494L24.1154 32.4599L21.3969 33.2625Z" fill="#144378"/>
</svg>
