<svg width="18" height="18" viewBox="0 0 18 18" fill="none" xmlns="http://www.w3.org/2000/svg">
<path d="M15.7252 2.40771H2.27485C1.02052 2.40771 0 3.42824 0 4.68256V13.3178C0 14.5721 1.02052 15.5926 2.27485 15.5926H15.7252C16.9795 15.5926 18 14.5721 18 13.3178V4.68256C18 3.42824 16.9795 2.40771 15.7252 2.40771ZM15.3698 3.87511L9 8.79566L2.63025 3.87511H15.3698ZM15.7252 14.1253H2.27485C1.82964 14.1253 1.46739 13.7631 1.46739 13.3179V4.83106L8.55147 10.3035C8.68353 10.4055 8.84182 10.4565 9 10.4565C9.15818 10.4565 9.31647 10.4055 9.44853 10.3035L16.5326 4.83106V13.3178C16.5326 13.7631 16.1704 14.1253 15.7252 14.1253Z" fill="#144175"/>
</svg>
