<svg width="32" height="32" viewBox="0 0 32 32" fill="none" xmlns="http://www.w3.org/2000/svg">
<path d="M15.7306 18.0854C15.8185 18.1118 15.9092 18.125 16 18.125C16.0908 18.125 16.1815 18.1118 16.2694 18.0854C18.2841 17.4811 20.0127 16.2696 21.2682 14.5821C22.5238 12.8945 23.1875 10.8907 23.1875 8.78731V3.4375C23.1875 2.91975 22.7678 2.5 22.25 2.5C21.0653 2.5 20.0003 1.84175 19.4705 0.78225L19.3386 0.518313C19.1797 0.200625 18.8551 0 18.5 0H13.5C13.1449 0 12.8202 0.200625 12.6614 0.51825L12.5295 0.782125C11.9998 1.84175 10.9347 2.5 9.75 2.5C9.23225 2.5 8.8125 2.91975 8.8125 3.4375V8.78731C8.8125 10.8907 9.47619 12.8945 10.7317 14.5821C11.9873 16.2696 13.7159 17.4811 15.7306 18.0854V18.0854ZM10.6875 4.28769C12.1063 4.01987 13.3398 3.15019 14.0703 1.875H17.9297C18.6602 3.15013 19.8937 4.01987 21.3125 4.28769V8.78738C21.3125 12.1784 19.1893 15.1239 16 16.2036C12.8107 15.1239 10.6875 12.1784 10.6875 8.78738V4.28769Z" fill="#144378"/>
<path d="M15.1165 11.7678C15.3564 11.7678 15.5963 11.6763 15.7793 11.4932L19.3148 7.95771C19.681 7.59158 19.681 6.99802 19.3148 6.63189C18.9488 6.26577 18.3552 6.26577 17.989 6.63189L15.1164 9.50446L14.0115 8.39964C13.6455 8.03352 13.0519 8.03352 12.6857 8.39964C12.3196 8.76577 12.3196 9.35933 12.6857 9.72546L14.4535 11.4932C14.6366 11.6763 14.8765 11.7678 15.1165 11.7678V11.7678Z" fill="#144378"/>
<path d="M28.3226 22.0443C29.0499 21.3098 29.5 20.3004 29.5 19.1875C29.5 16.9474 27.6776 15.125 25.4375 15.125C23.1974 15.125 21.375 16.9474 21.375 19.1875C21.375 20.2984 21.8236 21.3063 22.5487 22.0404C21.0507 22.773 19.8732 24.0596 19.2856 25.6426C19.0699 25.4722 18.8408 25.3181 18.6 25.1823C19.1211 24.5796 19.4375 23.795 19.4375 22.9375C19.4375 21.0421 17.8954 19.5 16 19.5C14.1046 19.5 12.5625 21.0421 12.5625 22.9375C12.5625 23.795 12.8789 24.5796 13.4 25.1823C13.1592 25.3181 12.9301 25.4722 12.7144 25.6426C12.1268 24.0596 10.9492 22.773 9.45131 22.0404C10.1764 21.3063 10.625 20.2984 10.625 19.1875C10.625 16.9474 8.80256 15.125 6.5625 15.125C4.32244 15.125 2.5 16.9474 2.5 19.1875C2.5 20.3004 2.95006 21.3098 3.67738 22.0443C1.50137 23.1139 0 25.3536 0 27.9375V31.0625C0 31.5803 0.41975 32 0.9375 32H31.0625C31.5803 32 32 31.5803 32 31.0625V27.9375C32 25.3536 30.4986 23.1139 28.3226 22.0443V22.0443ZM23.25 19.1875C23.25 17.9813 24.2313 17 25.4375 17C26.6437 17 27.625 17.9813 27.625 19.1875C27.625 20.3937 26.6437 21.375 25.4375 21.375C24.2313 21.375 23.25 20.3937 23.25 19.1875ZM14.4375 22.9375C14.4375 22.0759 15.1384 21.375 16 21.375C16.8616 21.375 17.5625 22.0759 17.5625 22.9375C17.5625 23.7991 16.8616 24.5 16 24.5C15.1384 24.5 14.4375 23.7991 14.4375 22.9375ZM4.375 19.1875C4.375 17.9813 5.35631 17 6.5625 17C7.76869 17 8.75 17.9813 8.75 19.1875C8.75 20.3937 7.76869 21.375 6.5625 21.375C5.35631 21.375 4.375 20.3937 4.375 19.1875ZM1.875 27.9375C1.875 25.3528 3.97781 23.25 6.5625 23.25C8.99362 23.25 10.9984 25.0898 11.2277 27.481C10.8822 28.1854 10.6875 28.9765 10.6875 29.8125V30.125H1.875V27.9375ZM19.4375 30.125H12.5625V29.8125C12.5625 27.9171 14.1046 26.375 16 26.375C17.8954 26.375 19.4375 27.9171 19.4375 29.8125V30.125ZM30.125 30.125H21.3125V29.8125C21.3125 28.9765 21.1177 28.1854 20.7722 27.481C21.0016 25.0898 23.0064 23.25 25.4375 23.25C28.0222 23.25 30.125 25.3528 30.125 27.9375V30.125Z" fill="#144378"/>
</svg>
