<svg xmlns="http://www.w3.org/2000/svg" width="32" height="32" fill="none" viewBox="0 0 32 32"><g clip-path="url(#clip0)"><path fill="#144378" d="M29.8583 14.3232L27.7042 12.1691L15.8506 0.315529C15.4299 -0.105176 14.7477 -0.105176 14.3269 0.315529L2.47331 12.1691L0.318136 14.3243C-0.0953075 14.7524 -0.0835003 15.4346 0.344592 15.848C0.762203 16.2514 1.42423 16.2514 1.84184 15.848L2.15647 15.5312V29.0938C2.15647 29.689 2.63893 30.1714 3.23409 30.1714H26.9412C27.5364 30.1714 28.0189 29.689 28.0189 29.0938V15.5312L28.3346 15.8469C28.7627 16.2604 29.4448 16.2485 29.8583 15.8205C30.2616 15.4029 30.2616 14.7408 29.8583 14.3232ZM18.3205 28.0163H11.8549V19.3954H18.3205V28.0163ZM25.8636 28.0163H20.4757V18.3179C20.4757 17.7227 19.9932 17.2403 19.398 17.2403H10.7773C10.1821 17.2403 9.69967 17.7227 9.69967 18.3179V28.0163H4.31171V13.376L15.0876 2.60001L25.8636 13.376V28.0163Z"/></g><defs><clipPath id="clip0"><rect width="32" height="32" fill="#fff"/></clipPath></defs></svg>