<svg width="22" height="22" viewBox="0 0 22 22" fill="none" xmlns="http://www.w3.org/2000/svg">
<path d="M11.0047 5.6094C7.88147 5.6094 5.36228 8.01409 5.36228 10.9953C5.36228 13.9766 7.88147 16.3813 11.0047 16.3813C14.1279 16.3813 16.6471 13.9766 16.6471 10.9953C16.6471 8.01409 14.1279 5.6094 11.0047 5.6094ZM11.0047 14.4969C8.98638 14.4969 7.33638 12.9266 7.33638 10.9953C7.33638 9.06409 8.98147 7.49377 11.0047 7.49377C13.0279 7.49377 14.673 9.06409 14.673 10.9953C14.673 12.9266 13.023 14.4969 11.0047 14.4969ZM18.194 5.38909C18.194 6.08752 17.6047 6.64534 16.8779 6.64534C16.1462 6.64534 15.5618 6.08284 15.5618 5.38909C15.5618 4.69534 16.1511 4.13284 16.8779 4.13284C17.6047 4.13284 18.194 4.69534 18.194 5.38909ZM21.931 6.66409C21.8475 4.98127 21.4449 3.49065 20.1533 2.26252C18.8667 1.0344 17.3051 0.650024 15.5422 0.565649C13.7252 0.467212 8.27924 0.467212 6.46228 0.565649C4.70424 0.645337 3.14263 1.02971 1.85112 2.25784C0.559598 3.48596 0.16183 4.97659 0.0734375 6.6594C-0.0296875 8.39377 -0.0296875 13.5922 0.0734375 15.3266C0.15692 17.0094 0.559598 18.5 1.85112 19.7281C3.14263 20.9563 4.69933 21.3406 6.46228 21.425C8.27924 21.5235 13.7252 21.5235 15.5422 21.425C17.3051 21.3453 18.8667 20.961 20.1533 19.7281C21.44 18.5 21.8426 17.0094 21.931 15.3266C22.0342 13.5922 22.0342 8.39846 21.931 6.66409ZM19.5837 17.1875C19.2007 18.1063 18.4592 18.8141 17.4917 19.1844C16.0431 19.7328 12.6056 19.6063 11.0047 19.6063C9.40379 19.6063 5.96138 19.7281 4.51763 19.1844C3.55513 18.8188 2.81362 18.111 2.42567 17.1875C1.85112 15.8047 1.98371 12.5235 1.98371 10.9953C1.98371 9.46721 1.85603 6.18127 2.42567 4.80315C2.80871 3.8844 3.55022 3.17659 4.51763 2.80627C5.96629 2.25784 9.40379 2.3844 11.0047 2.3844C12.6056 2.3844 16.048 2.26252 17.4917 2.80627C18.4542 3.1719 19.1958 3.87971 19.5837 4.80315C20.1583 6.18596 20.0257 9.46721 20.0257 10.9953C20.0257 12.5235 20.1583 15.8094 19.5837 17.1875Z" fill="#124477"/>
</svg>
