<svg width="29" height="29" viewBox="0 0 29 29" fill="none" xmlns="http://www.w3.org/2000/svg">
<path d="M23.5989 12.6967C23.5989 19.6967 14.5989 25.6967 14.5989 25.6967C14.5989 25.6967 5.59888 19.6967 5.59888 12.6967C5.59888 10.3097 6.54709 8.02052 8.23492 6.33269C9.92274 4.64487 12.2119 3.69666 14.5989 3.69666C16.9858 3.69666 19.275 4.64487 20.9628 6.33269C22.6507 8.02052 23.5989 10.3097 23.5989 12.6967Z" stroke="#1A1A1A" stroke-linecap="round" stroke-linejoin="round"/>
<path d="M14.5989 15.6967C16.2557 15.6967 17.5989 14.3535 17.5989 12.6967C17.5989 11.0398 16.2557 9.69666 14.5989 9.69666C12.942 9.69666 11.5989 11.0398 11.5989 12.6967C11.5989 14.3535 12.942 15.6967 14.5989 15.6967Z" stroke="#1A1A1A" stroke-linecap="round" stroke-linejoin="round"/>
</svg>
