<svg width="35" height="35" viewBox="0 0 35 35" fill="none" xmlns="http://www.w3.org/2000/svg">
<path d="M30.5546 13.8026L18.9567 2.20471C17.7577 1.00569 15.8066 1.00562 14.6075 2.20471C13.5296 3.28253 13.4368 4.92637 14.2328 6.10017L14.2166 6.1809C13.3805 10.3621 11.3448 14.1659 8.32954 17.1811L3.00989 22.5007C1.808 23.7027 1.8078 25.6479 3.00989 26.8499L5.90928 29.7493C7.11111 30.9512 9.05648 30.9512 10.2584 29.7493L10.9833 29.0244L16.0574 34.0984C17.2592 35.3004 19.2045 35.3005 20.4064 34.0984C21.6055 32.8994 21.6055 30.9484 20.4064 29.7493L18.2319 27.5748L18.9567 26.8499C20.1586 25.6481 20.1588 23.7028 18.9567 22.5008L18.4641 22.0081C20.8874 20.3115 23.6395 19.1303 26.5785 18.5425L26.6602 18.5262C27.8601 19.3363 29.5001 19.2061 30.5546 18.1516H30.5546C31.7535 16.9527 31.7535 15.0017 30.5546 13.8026ZM8.80874 28.2996C8.40816 28.7001 7.75956 28.7002 7.35898 28.2995L4.45959 25.4001C4.05894 24.9994 4.05894 24.3511 4.45959 23.9504L9.53355 18.8764L13.8827 23.2255C13.3863 23.722 9.3174 27.7908 8.80874 28.2996ZM18.9567 31.199C19.3563 31.5986 19.3563 32.249 18.9567 32.6487C18.557 33.0483 17.9066 33.0483 17.507 32.6487L12.4329 27.5746L13.8827 26.1249L18.9567 31.199ZM15.3324 24.6752C15.6406 24.3671 16.1019 23.8951 16.8299 23.2733L17.507 23.9504C17.9076 24.3511 17.9076 24.9994 17.507 25.4001L16.7821 26.125L15.3324 24.6752ZM15.3759 21.8195L10.9396 17.3831C13.317 14.6378 15.0196 11.3973 15.9305 7.87676L24.8823 16.8285C21.3618 17.7394 18.1213 19.4419 15.3759 21.8195ZM29.1047 16.7019C28.704 17.1025 28.0556 17.1025 27.655 16.7019L16.0572 5.1041C15.6566 4.70338 15.6566 4.05506 16.0572 3.65441C16.4579 3.25375 17.1063 3.25375 17.507 3.65441L29.1047 15.2521C29.5043 15.6518 29.5043 16.3021 29.1047 16.7019Z" fill="#144378"/>
<path d="M10.2592 22.5008C9.85896 22.1005 9.20982 22.1005 8.8095 22.5008L7.35981 23.9505C6.95949 24.3508 6.95949 24.9999 7.35981 25.4002C7.76005 25.8005 8.40926 25.8005 8.8095 25.4002L10.2592 23.9505C10.6595 23.5502 10.6595 22.9011 10.2592 22.5008Z" fill="#144378"/>
<path d="M23.6648 0C23.0986 0 22.6396 0.458964 22.6396 1.02512V3.07535C22.6396 3.6415 23.0986 4.10046 23.6648 4.10046C24.2309 4.10046 24.6899 3.6415 24.6899 3.07535V1.02512C24.6899 0.458964 24.2309 0 23.6648 0Z" fill="#144378"/>
<path d="M31.8664 8.20068H29.8161C29.25 8.20068 28.791 8.65965 28.791 9.2258C28.791 9.79195 29.25 10.2509 29.8161 10.2509H31.8664C32.4325 10.2509 32.8915 9.79195 32.8915 9.2258C32.8915 8.65965 32.4324 8.20068 31.8664 8.20068Z" fill="#144378"/>
<path d="M30.5414 2.3504C30.1411 1.95009 29.492 1.95009 29.0917 2.3504L27.0414 4.40064C26.6411 4.80095 26.6411 5.45002 27.0414 5.85033C27.4417 6.25064 28.0908 6.25071 28.4911 5.85033L30.5414 3.8001C30.9417 3.39979 30.9417 2.75078 30.5414 2.3504Z" fill="#144378"/>
</svg>
