<svg width="32" height="32" viewBox="0 0 32 32" fill="none" xmlns="http://www.w3.org/2000/svg">
<g clip-path="url(#clip0)">
<path d="M31.3691 0.662087C30.6089 -0.0981001 29.2951 -0.17285 27.5687 0.445837C26.3815 0.871462 25.1363 1.58471 24.5405 2.18046L19.7561 6.96484L4.00725 4.49121L0 8.49846L13.0938 13.6271L8.88969 17.8313L2.92269 18.1807L0.0615 21.0419L6.53706 24.1665L4.72294 25.9806L6.05044 27.3081L7.86212 25.4965L10.9898 31.969L13.8503 29.1084L14.1998 23.1414L18.4745 18.8667L23.6022 31.9579L27.6094 27.9506L25.1362 12.2048L29.8506 7.4904C30.4464 6.89471 31.1597 5.64946 31.5853 4.46221C32.204 2.73634 32.1292 1.42215 31.3691 0.662087ZM3.35663 7.79696L4.6595 6.49409L18.1138 8.60728L14.5428 12.1783L3.35663 7.79696ZM25.6066 27.2985L24.3037 28.6014L19.9233 17.418L23.4938 13.8475L25.6066 27.2985ZM29.818 3.8289C29.4593 4.82965 28.8665 5.81971 28.5231 6.16309L12.3675 22.3188L12.018 28.2858L11.5307 28.7731L9.26806 24.0908L10.9001 22.4587L9.57263 21.1312L7.94325 22.7605L3.25856 20.5L3.74531 20.0133L9.71231 19.6638L25.868 3.50802C26.2114 3.16459 27.2015 2.57196 28.2022 2.21315C29.3382 1.8059 29.941 1.88902 30.0416 1.98959C30.142 2.09009 30.2253 2.69271 29.818 3.8289Z" fill="#144277"/>
</g>
<defs>
<clipPath id="clip0">
<rect width="32" height="32" fill="white"/>
</clipPath>
</defs>
</svg>
