<svg width="32" height="32" viewBox="0 0 32 32" fill="none" xmlns="http://www.w3.org/2000/svg">
<path d="M16 14.5C14.3458 14.5 13 15.8458 13 17.5C13 19.1542 14.3458 20.5 16 20.5C17.6542 20.5 19 19.1542 19 17.5C19 15.8458 17.6542 14.5 16 14.5ZM16 18.5C15.4486 18.5 15 18.0514 15 17.5C15 16.9486 15.4486 16.5 16 16.5C16.5514 16.5 17 16.9486 17 17.5C17 18.0514 16.5514 18.5 16 18.5Z" fill="#144378"/>
<path d="M31 30H30.5V21H31C31.3466 21 31.6684 20.8206 31.8506 20.5257C32.0329 20.2309 32.0494 19.8628 31.8944 19.5528L27.8944 11.5528C27.7251 11.214 27.3788 11 27 11H20.1153L17 8.06794V6H21C21.5523 6 22 5.55225 22 5V1C22 0.44775 21.5523 0 21 0H16C15.4477 0 15 0.44775 15 1V5V8.06794L11.8847 11H5C4.62119 11 4.27494 11.214 4.10556 11.5528L0.105563 19.5528C-0.049375 19.8628 -0.032875 20.2309 0.149375 20.5257C0.331563 20.8206 0.653437 21 1 21H1.5V30H1C0.44775 30 0 30.4477 0 31C0 31.5523 0.44775 32 1 32H31C31.5523 32 32 31.5523 32 31C32 30.4477 31.5523 30 31 30ZM28.5 30H23.5V21H28.5V30ZM26.3819 13L29.3819 19H23.5V16.9321L23.8146 17.2282C24.0077 17.4099 24.254 17.5 24.4998 17.5C24.7659 17.5 25.0314 17.3944 25.2282 17.1854C25.6067 16.7832 25.5876 16.1503 25.1853 15.7718L22.2403 13H26.3819ZM20 4H17V2H20V4ZM5.61806 13H9.75969L6.81469 15.7718C6.4125 16.1504 6.39331 16.7833 6.77181 17.1854C7.15037 17.5876 7.78325 17.6067 8.18538 17.2283L8.5 16.9321V19H2.61806L5.61806 13ZM3.5 21H8.5V30H3.5V21ZM14.5 30V26H17.5V30H14.5ZM19.5 30V25C19.5 24.4477 19.0523 24 18.5 24H13.5C12.9477 24 12.5 24.4477 12.5 25V30H10.5V15.0498L16 9.87331L21.5 15.0498V30H19.5Z" fill="#144378"/>
<path d="M25.5 25H26.5C27.0523 25 27.5 24.5523 27.5 24C27.5 23.4477 27.0523 23 26.5 23H25.5C24.9477 23 24.5 23.4477 24.5 24C24.5 24.5523 24.9477 25 25.5 25Z" fill="#144378"/>
<path d="M26.5 26.5H25.5C24.9477 26.5 24.5 26.9477 24.5 27.5C24.5 28.0523 24.9477 28.5 25.5 28.5H26.5C27.0523 28.5 27.5 28.0523 27.5 27.5C27.5 26.9477 27.0523 26.5 26.5 26.5Z" fill="#144378"/>
<path d="M5.5 25H6.4375C6.98975 25 7.4375 24.5523 7.4375 24C7.4375 23.4477 6.98975 23 6.4375 23H5.5C4.94775 23 4.5 23.4477 4.5 24C4.5 24.5523 4.94775 25 5.5 25Z" fill="#144378"/>
<path d="M6.4375 26.5H5.5C4.94775 26.5 4.5 26.9477 4.5 27.5C4.5 28.0523 4.94775 28.5 5.5 28.5H6.4375C6.98975 28.5 7.4375 28.0523 7.4375 27.5C7.4375 26.9477 6.98975 26.5 6.4375 26.5Z" fill="#144378"/>
</svg>
