<svg width="33" height="33" viewBox="0 0 33 33" fill="none" xmlns="http://www.w3.org/2000/svg">
<path d="M30.6596 6.39709H2.34042C1.02822 6.39709 0 7.42532 0 8.73752V28.8262C0 30.1384 1.02822 31.1666 2.34042 31.1666H30.6596C31.9718 31.1666 33 30.1384 33 28.8262V8.73752C33 7.42532 31.9718 6.39709 30.6596 6.39709ZM30.6596 28.8261H2.34042L2.3225 8.73906C2.3225 8.73906 2.32798 8.73752 2.34042 8.73752H30.6596V28.8261Z" fill="#144277"/>
<path d="M31.8295 14.6277H1.16992V16.9681H31.8295V14.6277Z" fill="#144277"/>
<path d="M19.4639 15.7979V20.1276H13.5348V15.7979H11.1943V21.2978C11.1943 21.9442 11.7182 22.468 12.3645 22.468H20.6341C21.2808 22.468 21.8043 21.9442 21.8043 21.2978V15.7979H19.4639V15.7979Z" fill="#144277"/>
<path d="M20.9075 1.83337H12.0918C10.5861 1.83337 9.36133 3.05818 9.36133 4.56387V7.56738H11.7018V4.56387C11.7018 4.35246 11.8804 4.1738 12.0918 4.1738H20.9074C21.1188 4.1738 21.2975 4.35246 21.2975 4.56387V7.56738H23.6379V4.56387C23.638 3.05824 22.4127 1.83337 20.9075 1.83337Z" fill="#144277"/>
</svg>
